<svg width="48" height="48" viewBox="0 0 48 48" fill="none" xmlns="http://www.w3.org/2000/svg">
<path d="M34.449 23.31C20.334 8.385 32.184 5.535 42.384 5.34C43.014 5.325 43.539 4.815 43.539 4.17C43.539 3.525 43.014 3 42.369 3H22.539C12.609 3 4.55399 11.055 4.55399 20.985V28.545L36.774 26.145L34.449 23.31Z" fill="#26EAFC"/>
<path d="M39.279 38.115C41.934 31.53 36.444 23.115 27.024 19.335C17.604 15.54 7.82399 17.805 5.16899 24.39C2.51399 30.975 8.00399 39.39 17.424 43.17C26.844 46.965 36.624 44.7 39.279 38.115Z" fill="#0074BA"/>
<path d="M38.544 34.68C40.644 29.445 35.544 22.47 27.144 19.08C18.744 15.69 10.224 17.19 8.12398 22.425C6.02398 27.66 11.124 34.635 19.524 38.025C27.924 41.415 36.444 39.915 38.544 34.68Z" fill="#00A6ED"/>
<path d="M34.836 33.228C36.426 29.277 32.5635 24.0015 26.2095 21.4425C19.854 18.8835 13.413 20.0115 11.823 23.961C10.233 27.9105 14.0955 33.186 20.4495 35.7465C26.805 38.3055 33.246 37.1775 34.836 33.2265V33.228Z" stroke="#26EAFC" stroke-width="0.686" stroke-miterlimit="10"/>
</svg>
